<svg version="1.1" id="Layer_1" xmlns="http://www.w3.org/2000/svg" x="0" y="0" width="1417.32" height="850.39" viewBox="0 0 1417.32 850.39" xml:space="preserve"><path fill-rule="evenodd" clip-rule="evenodd" fill="#FFF" d="M317.243,426.649l-3.419,3.416l-64.807-64.795l2.69-2.692	c18.166-18.164,48.338-18.605,66.156-0.097C335.133,380.421,334.93,408.963,317.243,426.649 M277.748,466.139l28.729-28.728	L235.75,366.69l-4.844-4.84c-16.653-16.653-42.931-17.801-60.919-3.463L277.748,466.139z M241.671,502.21l28.731-28.729	l-61.798-61.79l-15.261,15.254l-13.471,13.472L241.671,502.21z M165.054,418.712c-6.033-6.033-6.033-15.81,0-21.845	c6.032-6.027,15.81-6.027,21.837,0c6.036,6.035,6.036,15.812,0,21.845C180.864,424.738,171.086,424.738,165.054,418.712 M241.671,283.171c-71.709,0-129.845,58.128-129.845,129.835c0,71.705,58.136,129.833,129.845,129.833	c71.71,0,129.847-58.129,129.847-129.833C371.518,341.3,313.381,283.171,241.671,283.171"/><path fill="#FFF" d="M418.057 351.794H450.369V475.758H418.057z"/><path fill="#FFF" d="M474.933 475.758L474.933 351.794 507.242 351.794 507.242 446.641 558.524 446.641 558.524 475.758z"/><path fill="#FFF" d="M570.504,475.758V351.794h43.205c19.282-0.25,35.436,5.384,48.462,16.903	c13.022,11.523,19.408,26.423,19.159,44.704c0.249,18.155-6.169,33.149-19.249,44.982c-13.091,11.83-29.212,17.623-48.373,17.374	H570.504z M602.813,446.646h10.708c10.266,0,18.623-3.011,25.075-9.018c6.45-6.011,9.674-14.089,9.674-24.228	c0-10.267-3.166-18.22-9.486-23.859c-6.324-5.631-14.744-8.449-25.263-8.449h-10.708V446.646z"/><path fill="#FFF" d="M699.741,451.341l7.327-5.45c9.639,15.028,22.099,22.538,37.379,22.538c8.386,0,15.183-2.124,20.381-6.384	c5.195-4.254,7.793-9.954,7.793-17.091c-0.251-6.261-1.905-10.955-4.975-14.088c-3.067-3.128-9.049-6.952-17.939-11.455	l-14.089-6.766c-9.143-4.128-15.903-8.451-20.285-12.957c-4.386-4.508-6.764-10.894-7.139-19.161	c0-9.263,3.476-16.682,10.424-22.257c6.952-5.568,15.498-8.358,25.641-8.358c7.764,0,14.872,1.757,21.323,5.26	c6.448,3.504,11.737,8.329,15.87,14.462l-7.324,5.448c-7.64-10.77-17.596-16.153-29.869-16.153c-7.137,0-13.215,1.753-18.219,5.26	c-5.136,3.633-7.699,8.89-7.699,15.775c0.37,6.139,2.032,10.644,4.975,13.523c2.941,2.881,8.608,6.388,17.003,10.518l13.898,6.76	c10.145,4.764,17.437,9.647,21.882,14.652c4.444,5.011,6.669,11.459,6.669,19.345c0,9.644-3.663,17.534-10.987,23.664	c-7.325,6.14-16.501,9.207-27.521,9.207c-9.267,0-17.783-2.313-25.548-6.952C710.947,466.057,704.622,459.604,699.741,451.341"/><path fill="#FFF" d="M840.32 475.758L840.32 360.623 795.048 360.623 795.048 351.794 895.548 351.794 895.548 360.623 850.086 360.623 850.086 475.758z"/><path fill="#FFF" d="M913.092,427.674v-75.88h9.768v76.257c0,12.649,3.442,22.54,10.33,29.677	c6.886,7.136,16.091,10.704,27.614,10.704c11.393,0,20.539-3.568,27.425-10.704c6.885-7.137,10.33-17.027,10.33-29.677v-76.257	h9.768v75.88c0,15.529-4.317,27.738-12.959,36.629c-8.642,8.89-20.163,13.333-34.563,13.333c-14.528,0-26.111-4.443-34.75-13.333	C917.412,455.412,913.092,443.203,913.092,427.674"/><path fill="#FFF" d="M1040.41,475.758V351.794h34.938c20.915,0,37.381,5.728,49.401,17.187	c12.025,11.454,18.036,26.321,18.036,44.608c0.248,18.028-5.763,32.934-18.036,44.699c-12.273,11.775-28.74,17.593-49.401,17.471	H1040.41z M1050.178,466.929h25.17c17.656,0,31.619-5.011,41.889-15.023c10.267-10.018,15.399-22.79,15.399-38.317	s-5.101-28.238-15.306-38.127c-10.208-9.894-24.2-14.838-41.982-14.838h-25.17V466.929z"/><path fill="#FFF" d="M1168.277 351.794H1178.0420000000001V475.758H1168.277z"/><path fill="#FFF" d="M1203.438,413.774c-0.379-17.653,5.76-32.774,18.41-45.359c12.646-12.584,27.672-18.75,45.08-18.5	c17.283-0.25,32.309,5.944,45.084,18.595c12.772,12.651,18.97,27.737,18.596,45.265c0.374,17.53-5.823,32.654-18.596,45.363	c-12.775,12.708-27.801,18.873-45.084,18.499c-17.408,0.374-32.434-5.791-45.08-18.499	C1209.197,446.428,1203.059,431.304,1203.438,413.774 M1320.277,413.588c0.25-15.149-4.854-28.11-15.309-38.881	c-10.459-10.767-23.077-16.027-37.854-15.776c-14.902-0.25-27.582,5.01-38.038,15.776c-10.456,10.771-15.562,23.731-15.309,38.881	c-0.253,15.277,4.853,28.299,15.309,39.067c10.456,10.77,23.136,16.03,38.038,15.776c14.776,0.254,27.395-5.039,37.854-15.871	C1315.423,441.733,1320.527,428.739,1320.277,413.588"/></svg>